<?xml version="1.0" encoding="utf-8"?>
<!-- Generator: Adobe Illustrator 27.0.0, SVG Export Plug-In . SVG Version: 6.00 Build 0)  -->
<svg version="1.1" id="Laag_1" xmlns="http://www.w3.org/2000/svg" xmlns:xlink="http://www.w3.org/1999/xlink" x="0px" y="0px"
	 viewBox="0 0 590.44 156.08" style="enable-background:new 0 0 590.44 156.08;" xml:space="preserve">
<style type="text/css">
	.st0{fill:#1A1B16;}
	.st1{fill:#EF7900;}
</style>
<g>
	<g>
		<path class="st0" d="M155.44,22.44c-3.63-1.92-7.74-2.88-12.34-2.88c-4.65,0-8.78,0.96-12.38,2.88c-3.6,1.92-6.44,4.57-8.52,7.95
			c-2.08,3.38-3.12,7.26-3.12,11.65c0,4.33,1.04,8.19,3.12,11.57c2.08,3.38,4.92,6.05,8.52,7.99c3.6,1.95,7.72,2.92,12.38,2.92
			c4.6,0,8.71-0.97,12.34-2.92c3.62-1.95,6.47-4.61,8.52-7.99c2.06-3.38,3.08-7.24,3.08-11.57c0-4.44-1.03-8.33-3.08-11.69
			C161.91,27,159.07,24.36,155.44,22.44z M152.77,48.49c-0.97,1.81-2.3,3.21-3.98,4.18c-1.68,0.97-3.57,1.46-5.68,1.46
			c-2.11,0-4.01-0.49-5.68-1.46c-1.68-0.97-3.02-2.37-4.02-4.18c-1-1.81-1.5-3.96-1.5-6.45c0-2.54,0.5-4.71,1.5-6.49
			c1-1.79,2.34-3.17,4.02-4.14c1.68-0.97,3.57-1.46,5.68-1.46c2.11,0,4,0.49,5.68,1.46c1.68,0.97,3,2.35,3.98,4.14
			s1.46,3.95,1.46,6.49C154.23,44.53,153.74,46.68,152.77,48.49z"/>
		<path class="st0" d="M101.3,22.44c-3.63-1.92-7.74-2.88-12.34-2.88c-4.65,0-8.78,0.96-12.38,2.88c-3.6,1.92-6.44,4.57-8.52,7.95
			c-2.08,3.38-3.12,7.26-3.12,11.65c0,4.33,1.04,8.19,3.12,11.57c2.08,3.38,4.92,6.05,8.52,7.99c3.6,1.95,7.72,2.92,12.38,2.92
			c4.6,0,8.71-0.97,12.34-2.92c3.62-1.95,6.47-4.61,8.52-7.99c2.06-3.38,3.08-7.24,3.08-11.57c0-4.44-1.03-8.33-3.08-11.69
			C107.76,27,104.92,24.36,101.3,22.44z M98.62,48.49c-0.97,1.81-2.3,3.21-3.98,4.18c-1.68,0.97-3.57,1.46-5.68,1.46
			c-2.11,0-4.01-0.49-5.68-1.46c-1.68-0.97-3.02-2.37-4.02-4.18c-1-1.81-1.5-3.96-1.5-6.45c0-2.54,0.5-4.71,1.5-6.49
			c1-1.79,2.34-3.17,4.02-4.14c1.68-0.97,3.57-1.46,5.68-1.46c2.11,0,4,0.49,5.68,1.46c1.68,0.97,3,2.35,3.98,4.14
			s1.46,3.95,1.46,6.49C100.08,44.53,99.59,46.68,98.62,48.49z"/>
		<polygon class="st0" points="41.72,41.53 13.48,7.06 2.6,7.06 2.6,63.88 15.59,63.88 15.59,29.39 43.91,63.88 54.71,63.88 
			54.71,7.06 41.72,7.06 		"/>
		<path class="st0" d="M408.33,24.8c-1.01-1.11-2.13-2.06-3.41-2.81c-2.76-1.62-5.98-2.44-9.66-2.44c-4.11,0-7.82,0.92-11.12,2.76
			c-3.3,1.84-5.91,4.44-7.83,7.79c-1.92,3.36-2.88,7.33-2.88,11.93c0,4.55,0.96,8.5,2.88,11.85c1.92,3.36,4.53,5.97,7.83,7.83
			c3.3,1.87,7.01,2.8,11.12,2.8c3.84,0,7.13-0.81,9.86-2.43c1.44-0.85,2.69-1.96,3.77-3.29v5.07h12.09V3.65h-12.66V24.8z
			 M407.07,48.49c-1,1.81-2.34,3.21-4.02,4.18c-1.68,0.97-3.54,1.46-5.6,1.46c-2.11,0-4.01-0.49-5.68-1.46
			c-1.68-0.97-3.02-2.37-4.02-4.18c-1-1.81-1.5-3.96-1.5-6.45c0-2.54,0.5-4.71,1.5-6.49c1-1.79,2.34-3.17,4.02-4.14
			c1.68-0.97,3.57-1.46,5.68-1.46c2.06,0,3.92,0.49,5.6,1.46c1.68,0.97,3.02,2.35,4.02,4.14c1,1.79,1.5,3.95,1.5,6.49
			C408.57,44.53,408.07,46.68,407.07,48.49z"/>
		<path class="st0" d="M467.59,44.6c-0.97-1.54-2.23-2.76-3.77-3.65c-1.54-0.89-3.26-1.58-5.15-2.07c-1.89-0.49-3.77-0.85-5.64-1.1
			c-1.87-0.24-3.59-0.53-5.15-0.85c-1.57-0.32-2.83-0.76-3.77-1.3c-0.95-0.54-1.42-1.35-1.42-2.44c0-1.19,0.65-2.16,1.95-2.92
			c1.3-0.76,3.35-1.14,6.17-1.14c2,0,4.07,0.23,6.21,0.69c2.14,0.46,4.26,1.31,6.37,2.56l4.22-9.01c-2.06-1.24-4.63-2.19-7.71-2.84
			c-3.08-0.65-6.12-0.97-9.09-0.97c-4.22,0-7.85,0.61-10.88,1.83c-3.03,1.22-5.34,2.88-6.94,4.99c-1.6,2.11-2.39,4.55-2.39,7.3
			c0,2.49,0.47,4.52,1.42,6.09c0.95,1.57,2.2,2.81,3.77,3.73c1.57,0.92,3.3,1.61,5.19,2.07c1.89,0.46,3.77,0.83,5.64,1.1
			c1.87,0.27,3.58,0.54,5.15,0.81c1.57,0.27,2.83,0.66,3.77,1.18c0.95,0.51,1.42,1.29,1.42,2.31c0,1.25-0.61,2.22-1.83,2.92
			c-1.22,0.7-3.29,1.06-6.21,1.06c-2.65,0-5.34-0.39-8.08-1.18c-2.73-0.78-5.1-1.8-7.1-3.04l-4.22,9.09c2,1.35,4.72,2.48,8.16,3.37
			c3.44,0.89,7.02,1.34,10.75,1.34c4.38,0,8.1-0.6,11.16-1.79c3.06-1.19,5.4-2.83,7.02-4.91c1.62-2.08,2.43-4.48,2.43-7.18
			C469.05,48.16,468.56,46.14,467.59,44.6z"/>
		<path class="st0" d="M355.76,21.63c-2.73-1.38-5.83-2.07-9.29-2.07c-3.73,0-7.06,0.79-9.98,2.35c-1.74,0.93-3.21,2.13-4.46,3.55
			v-5.25h-12.09v43.67h12.66V42.28c0-2.71,0.45-4.92,1.34-6.66c0.89-1.73,2.14-3.02,3.73-3.86c1.6-0.84,3.4-1.26,5.4-1.26
			c2.81,0,4.99,0.84,6.53,2.52c1.54,1.68,2.31,4.28,2.31,7.79v23.05h12.66v-25c0-4.44-0.79-8.08-2.35-10.92
			C360.65,25.12,358.5,23.01,355.76,21.63z"/>
		<path class="st0" d="M299.33,22.44c-3.63-1.92-7.74-2.88-12.34-2.88c-4.65,0-8.78,0.96-12.38,2.88c-3.6,1.92-6.44,4.57-8.52,7.95
			c-2.08,3.38-3.13,7.26-3.13,11.65c0,4.33,1.04,8.19,3.13,11.57c2.08,3.38,4.92,6.05,8.52,7.99c3.6,1.95,7.72,2.92,12.38,2.92
			c4.6,0,8.71-0.97,12.34-2.92c3.62-1.95,6.47-4.61,8.52-7.99c2.06-3.38,3.08-7.24,3.08-11.57c0-4.44-1.03-8.33-3.08-11.69
			C305.79,27,302.95,24.36,299.33,22.44z M296.65,48.49c-0.97,1.81-2.3,3.21-3.98,4.18c-1.68,0.97-3.57,1.46-5.68,1.46
			c-2.11,0-4.01-0.49-5.68-1.46c-1.68-0.97-3.02-2.37-4.02-4.18c-1-1.81-1.5-3.96-1.5-6.45c0-2.54,0.5-4.71,1.5-6.49
			c1-1.79,2.34-3.17,4.02-4.14c1.68-0.97,3.57-1.46,5.68-1.46c2.11,0,4,0.49,5.68,1.46c1.68,0.97,3,2.35,3.98,4.14
			c0.97,1.79,1.46,3.95,1.46,6.49C298.11,44.53,297.62,46.68,296.65,48.49z"/>
		<path class="st0" d="M249.19,14.57c1-1.06,2.42-1.58,4.26-1.58c0.97,0,1.89,0.14,2.76,0.41c0.86,0.27,1.65,0.65,2.35,1.14
			l3.33-9.17c-1.19-0.81-2.64-1.41-4.34-1.79c-1.7-0.38-3.48-0.57-5.32-0.57c-5.41,0-9.58,1.47-12.5,4.42
			c-2.92,2.95-4.38,6.89-4.38,11.81v1.95h-6.74v9.74h6.74v32.95h12.66V30.92h10.88v-9.74h-11.2v-1.87
			C247.69,17.2,248.19,15.62,249.19,14.57z"/>
		<path class="st0" d="M208.2,24.8c-1.01-1.11-2.13-2.06-3.41-2.81c-2.76-1.62-5.98-2.44-9.66-2.44c-4.11,0-7.82,0.92-11.12,2.76
			c-3.3,1.84-5.91,4.44-7.83,7.79c-1.92,3.36-2.88,7.33-2.88,11.93c0,4.55,0.96,8.5,2.88,11.85c1.92,3.36,4.53,5.97,7.83,7.83
			c3.3,1.87,7.01,2.8,11.12,2.8c3.84,0,7.13-0.81,9.86-2.43c1.44-0.85,2.69-1.96,3.77-3.29v5.07h12.09V3.65H208.2V24.8z
			 M206.94,48.49c-1,1.81-2.34,3.21-4.02,4.18c-1.68,0.97-3.54,1.46-5.6,1.46c-2.11,0-4.01-0.49-5.68-1.46
			c-1.68-0.97-3.02-2.37-4.02-4.18c-1-1.81-1.5-3.96-1.5-6.45c0-2.54,0.5-4.71,1.5-6.49c1-1.79,2.34-3.17,4.02-4.14
			c1.68-0.97,3.57-1.46,5.68-1.46c2.06,0,3.92,0.49,5.6,1.46c1.68,0.97,3.02,2.35,4.02,4.14c1,1.79,1.5,3.95,1.5,6.49
			C208.45,44.53,207.95,46.68,206.94,48.49z"/>
	</g>
	<g>
		<path class="st1" d="M527.03,73.61c-2.33,0-4.22,0.68-5.68,2.03c-1.46,1.35-2.19,3.03-2.19,5.03c0,2,0.73,3.68,2.19,5.03
			c1.46,1.35,3.35,2.03,5.68,2.03c2.38,0,4.29-0.69,5.72-2.07c1.43-1.38,2.15-3.12,2.15-5.24c0-2-0.73-3.64-2.19-4.91
			C531.25,74.25,529.35,73.61,527.03,73.61z"/>
		<polygon class="st1" points="278.73,113.79 305.11,113.79 305.11,103.57 278.73,103.57 278.73,91.23 308.6,91.23 308.6,80.68 
			265.66,80.68 265.66,137.49 309.65,137.49 309.65,126.94 278.73,126.94 		"/>
		<path class="st1" d="M355.87,95.25c-2.73-1.38-5.83-2.07-9.29-2.07c-3.73,0-7.06,0.78-9.98,2.35c-1.74,0.93-3.21,2.13-4.46,3.55
			v-5.25h-12.09v43.67h12.66V115.9c0-2.71,0.45-4.92,1.34-6.66c0.89-1.73,2.14-3.02,3.73-3.86c1.6-0.84,3.4-1.26,5.4-1.26
			c2.81,0,4.99,0.84,6.53,2.52c1.54,1.68,2.31,4.28,2.31,7.79v23.05h12.66v-25c0-4.44-0.79-8.08-2.35-10.92
			C360.75,98.74,358.6,96.63,355.87,95.25z"/>
		<path class="st1" d="M408.15,95.9c-3.44-1.81-7.29-2.72-11.57-2.72c-4.44,0-8.41,0.96-11.93,2.88c-3.52,1.92-6.29,4.57-8.32,7.95
			c-2.03,3.38-3.04,7.26-3.04,11.65c0,4.33,1.03,8.19,3.08,11.57c2.06,3.38,4.96,6.05,8.73,7.99c3.76,1.95,8.13,2.92,13.11,2.92
			c3.95,0,7.44-0.61,10.47-1.83c3.03-1.22,5.55-2.96,7.55-5.24l-6.74-7.3c-1.46,1.41-3.07,2.46-4.83,3.17
			c-1.76,0.7-3.8,1.06-6.13,1.06c-2.6,0-4.86-0.47-6.78-1.42c-1.92-0.95-3.41-2.33-4.46-4.14c-0.57-0.98-0.98-2.06-1.24-3.21h33.01
			c0.05-0.54,0.11-1.12,0.16-1.75c0.05-0.62,0.08-1.18,0.08-1.66c0-4.71-1-8.75-3-12.13C414.3,100.31,411.58,97.71,408.15,95.9z
			 M390.94,104.17c1.65-0.95,3.56-1.42,5.72-1.42c2.16,0,4.06,0.47,5.68,1.42c1.62,0.95,2.89,2.26,3.81,3.94
			c0.61,1.11,1,2.36,1.2,3.73H385.9c0.21-1.36,0.59-2.6,1.18-3.69C388.01,106.45,389.29,105.12,390.94,104.17z"/>
		<path class="st1" d="M585.2,103.69c-2-3.38-4.72-5.98-8.16-7.79c-3.44-1.81-7.29-2.72-11.57-2.72c-4.44,0-8.41,0.96-11.93,2.88
			c-3.52,1.92-6.29,4.57-8.32,7.95c-2.03,3.38-3.04,7.26-3.04,11.65c0,4.33,1.03,8.19,3.08,11.57c2.06,3.38,4.96,6.05,8.73,7.99
			c3.76,1.95,8.13,2.92,13.11,2.92c3.95,0,7.44-0.61,10.47-1.83c3.03-1.22,5.55-2.96,7.55-5.24l-6.74-7.3
			c-1.46,1.41-3.07,2.46-4.83,3.17c-1.76,0.7-3.8,1.06-6.13,1.06c-2.6,0-4.86-0.47-6.78-1.42c-1.92-0.95-3.41-2.33-4.46-4.14
			c-0.57-0.98-0.98-2.06-1.24-3.21h33.01c0.05-0.54,0.11-1.12,0.16-1.75c0.05-0.62,0.08-1.18,0.08-1.66
			C588.2,111.11,587.2,107.07,585.2,103.69z M559.83,104.17c1.65-0.95,3.56-1.42,5.72-1.42c2.16,0,4.06,0.47,5.68,1.42
			c1.62,0.95,2.89,2.26,3.81,3.94c0.61,1.11,1,2.36,1.2,3.73h-21.46c0.21-1.36,0.59-2.6,1.18-3.69
			C556.9,106.45,558.18,105.12,559.83,104.17z"/>
		<path class="st1" d="M440.29,99.64v-5.81H428.2v43.67h12.66v-20.62c0-4.17,1.07-7.24,3.21-9.21c2.14-1.97,4.94-2.96,8.4-2.96
			c0.49,0,0.95,0.01,1.38,0.04c0.43,0.03,0.92,0.07,1.46,0.12V93.18c-4.11,0-7.6,0.8-10.47,2.39
			C442.98,96.6,441.49,97.98,440.29,99.64z"/>
		<rect x="520.69" y="93.83" class="st1" width="12.66" height="43.67"/>
		<path class="st1" d="M496.7,99.42c-1.31-1.68-2.86-3.04-4.71-4.01c-2.81-1.49-6.06-2.23-9.74-2.23c-4.06,0-7.72,0.87-11,2.6
			c-3.27,1.73-5.9,4.18-7.87,7.35c-1.98,3.17-2.96,6.89-2.96,11.16c0,4.22,0.99,7.91,2.96,11.08c1.97,3.17,4.6,5.63,7.87,7.39
			c3.27,1.76,6.94,2.64,11,2.64c3.68,0,6.93-0.76,9.74-2.27c1.55-0.83,2.89-1.93,4.06-3.25v1.95c0,3.95-1.01,6.93-3.04,8.93
			c-2.03,2-5.29,3-9.78,3c-2.76,0-5.56-0.45-8.4-1.34c-2.84-0.89-5.18-2.1-7.02-3.61l-5.03,9.09c2.54,2,5.72,3.5,9.54,4.5
			c3.81,1,7.78,1.5,11.89,1.5c7.9,0,13.96-1.92,18.18-5.76c4.22-3.84,6.33-9.82,6.33-17.94V93.83H496.7V99.42z M494.75,119.88
			c-0.97,1.62-2.33,2.88-4.06,3.77c-1.73,0.89-3.71,1.34-5.93,1.34c-2.22,0-4.19-0.45-5.93-1.34c-1.73-0.89-3.1-2.15-4.1-3.77
			c-1-1.62-1.5-3.49-1.5-5.6c0-2.16,0.5-4.04,1.5-5.64c1-1.6,2.37-2.84,4.1-3.73c1.73-0.89,3.71-1.34,5.93-1.34
			c2.22,0,4.19,0.45,5.93,1.34c1.73,0.89,3.08,2.14,4.06,3.73c0.97,1.6,1.46,3.48,1.46,5.64
			C496.21,116.39,495.73,118.26,494.75,119.88z"/>
	</g>
</g>
</svg>
